PathFileType	4	(X/Y/Z)	OpenSim_Sub11_CSPreOp_Accel.trc
DataRate	CameraRate	NumFrames	NumMarkers	Units	OrigDataRate	OrigDataStartFrame	OrigNumFrames
100	100	34	8	m	100	2776	3701
Frame#	Time	torso_imu_offset_imu	pelvis_imu_offset_imu	tibia_r_imu_offset_imu	femur_r_imu_offset_imu	tibia_l_imu_offset_imu	femur_l_imu_offset_imu	toes_r_imu_offset_imu	toes_l_imu_offset_imu
				X1	Y1	Z1	X2	Y2	Z2	X3	Y3	Z3	X4	Y4	Z4	X5	Y5	Z5	X6	Y6	Z6	X7	Y7	Z7	X8		Y8	Z8	

2776	27.75000000	8.43686500	0.54141900	3.79258900	8.46900100	0.67160500	4.68570100	10.07911500	-0.95258400	5.79474100	10.45293500	-0.31515400	-0.42120700	9.66593000	1.41342800	0.40884400	9.19990400	2.42177200	-1.93754900	4.94760900	-1.97261500	8.43914000	6.21671000	0.13872300	7.58303300
2777	27.76000000	8.37597100	0.45193900	3.59871200	8.32402300	0.64143200	4.54887000	9.54576800	0.33220700	5.64452800	10.28759100	-0.53301300	-0.22165000	9.59718000	1.60961800	0.49025500	9.18204100	2.67536100	-1.71847600	5.60217200	-0.49855800	9.58277900	5.86310000	0.40885300	7.64843600
2778	27.77000000	8.35047200	0.61183400	3.60518200	8.21080800	0.47396400	4.48799600	9.26516600	1.75693900	4.38394500	10.61143400	-0.93063300	0.00272600	9.41255000	1.61657900	0.51499600	9.07029700	3.13283300	-1.42555800	5.35951300	-0.30676100	10.15719800	5.37581700	0.50197300	8.12816400
2779	27.78000000	8.45391900	0.64180100	3.60729000	8.19176800	0.28852000	4.39561700	9.47849500	3.56960900	3.82664400	10.85761000	-0.83869000	0.10353900	9.32865300	1.72278200	0.49849400	8.96540200	3.55910200	-1.02121000	5.29723400	-1.65664000	9.37187700	5.79924000	0.54772400	7.76808200
2780	27.79000000	8.60570900	0.78369900	3.63151600	8.22626000	0.14129900	4.26492600	10.24499000	5.32435600	3.60052300	10.84481000	-0.94360100	-0.19260200	9.55004900	1.92304600	0.74479200	9.09835300	2.96595600	-0.99670600	6.33347800	-0.70512600	9.51721600	5.53484900	0.41092500	7.97430100
2781	27.80000000	8.80072000	0.76537200	3.56372900	8.44588300	0.08580600	4.07671300	10.79824900	6.63204600	4.08462500	11.06793400	-0.19276300	-0.28898900	9.66834200	1.77671500	0.77467200	9.29140300	3.13566700	-1.13391000	7.16363900	-1.18510800	8.83826000	5.92408400	0.27996700	7.82360200
2782	27.81000000	9.02022800	0.77166100	3.61626300	8.62598300	0.04484500	4.04055600	10.77274400	6.81378100	4.92524400	11.16395100	0.37821000	-0.33035200	9.88299200	1.29175700	0.60914900	9.42884100	3.06908400	-1.40325500	7.29866100	-1.00902200	9.14269100	5.79021300	0.20765300	7.85573100
2783	27.82000000	9.32112900	0.76871000	3.60895400	8.85795300	0.05462800	3.89406600	9.91646800	6.59230400	4.25837100	11.27524100	0.73723700	-0.27797400	9.87315200	0.66154800	0.54645200	9.52998400	2.78994000	-1.51355800	7.69763400	-1.64826700	10.15121600	6.16072100	0.26994000	7.75163600
2784	27.83000000	9.58496000	0.69723800	3.66396700	9.07913000	-0.00651000	3.73602700	8.65569200	7.48733600	3.42750000	11.60075700	1.19827800	-0.29227800	9.96413300	0.16370900	0.57687900	9.41504200	2.57542200	-1.65219700	5.53597100	-2.12538200	11.36068300	5.70575400	0.24764900	7.91146800
2785	27.84000000	9.57973200	0.55489000	3.67534700	9.13321600	-0.07091200	3.68785600	7.74244000	9.51612300	3.08179900	12.00899000	1.89161200	-0.45575800	9.89965600	-0.04208600	0.47846200	9.41210900	1.94942000	-1.63422200	4.31328900	-0.00173400	15.15436500	5.72516100	0.38229300	8.03832200
2786	27.85000000	9.44357800	0.48158800	3.70031100	9.21803200	-0.11117100	3.65574100	7.55544600	11.00644500	2.75527500	11.99852000	3.03745800	-0.59794400	9.89052700	0.01363500	0.31815100	9.40092900	2.24373600	-2.02813500	1.18098900	-0.87957900	12.86412500	5.89580200	0.32916000	7.81653500
2787	27.86000000	9.39863100	0.43867400	3.75674800	9.30244000	-0.15574700	3.59708800	7.85052400	10.42731700	2.64940200	11.61658500	4.45009200	-0.56221200	9.99322200	0.29774000	0.16295600	9.44142100	2.06864600	-1.91627100	1.63523300	0.54919100	13.07686800	6.14064300	0.19823300	7.71126600
2788	27.87000000	9.49404000	0.45986200	3.71598300	9.36314300	-0.21561200	3.58935600	7.62760700	8.31401000	2.72914100	11.15186900	4.82469600	-0.70447000	10.04580700	0.32508100	-0.00757900	9.49553400	1.98100200	-1.94532900	0.50655800	-0.21776100	12.64049200	5.91925300	0.37397900	7.80460400
2789	27.88000000	9.65349200	0.58223000	3.75870700	9.42713100	-0.27252400	3.62859700	6.91663300	6.44043200	2.64315400	10.82457300	5.27311000	-0.88818600	10.02569500	0.14352300	-0.12471200	9.48776600	1.64934400	-2.04590000	-1.00527900	-1.31006000	10.85332400	5.50564700	0.41569000	8.13518700
2790	27.89000000	9.80876400	0.56678800	3.75393100	9.49803100	-0.28556300	3.66111200	6.28837600	5.28937300	2.23078300	10.32505100	5.08062300	-1.05295500	9.97978100	0.08584100	-0.08913700	9.28643100	1.90742900	-2.34908200	-0.69617800	-0.53606600	10.40428500	5.93950600	0.49568500	7.86661800
2791	27.90000000	9.83117300	0.55014300	3.73872300	9.51068700	-0.34820100	3.65302900	5.93593000	4.71878700	2.09750200	9.74424300	4.55772000	-1.20877300	9.97788800	0.22461400	-0.02930000	9.36294600	1.55946200	-2.32779000	-0.30358000	0.07779500	10.26860500	5.63377800	0.21294700	7.95448800
2792	27.91000000	9.87972700	0.53218500	3.74517200	9.48986400	-0.47958900	3.67720500	5.96046100	4.44447000	2.34300100	9.30905600	3.28228300	-1.26445400	9.95811300	-0.02862600	0.03580900	9.44904500	1.53578200	-2.40345500	0.00152200	0.13186100	9.98097700	6.06149100	0.30665000	7.79508400
2793	27.92000000	9.75772300	0.47946900	3.70750500	9.39633700	-0.58565700	3.62619200	6.15849800	4.63798600	2.44278100	9.01098900	2.30932700	-1.36256900	9.98510800	-0.44603800	0.06232500	9.43593100	1.50803800	-2.50249700	0.32142200	0.13954200	9.83446300	5.88594400	0.21695800	7.80003500
2794	27.93000000	9.74939700	0.44635700	3.70041500	9.30816400	-0.68372700	3.66974400	6.27960200	5.24223200	2.45935200	8.84160400	1.36937600	-1.37547700	9.96124100	-0.67755100	0.05893800	9.46885900	1.55012000	-2.48968800	0.94829500	-0.05543100	9.57702500	6.14381400	0.04785000	7.71179700
2795	27.94000000	9.65793400	0.40788800	3.73561600	9.24880000	-0.74341800	3.65732100	6.32983500	5.85315100	2.34738200	8.77191000	0.65915700	-1.22643400	9.96248000	-0.64871900	0.10800000	9.42198400	1.58177100	-2.55249500	1.42561400	-0.03933200	9.34567500	5.91355000	0.23463600	7.77470400
2796	27.95000000	9.58682600	0.29086900	3.74955600	9.19447000	-0.79627600	3.74067800	6.37385300	6.23567300	2.23259000	8.80305500	0.05187400	-1.05080200	9.83006700	-0.29407000	0.13250900	9.37461700	1.66753900	-2.58799500	1.73842900	-0.07691800	9.08490600	5.82643000	0.22707900	7.89342600
2797	27.96000000	9.49833400	0.19553400	3.73300800	9.08818800	-0.84820200	3.75179500	6.51256400	6.43325600	2.03702900	8.93439900	-0.31815300	-0.72984000	9.82741400	-0.05930900	0.21444900	9.41016100	1.65270300	-2.59644100	2.01900800	-0.23595000	9.02633300	5.90078100	0.41460000	7.83442900
2798	27.97000000	9.35790500	0.10045500	3.67221800	9.00614500	-0.88483100	3.68657700	6.91255600	6.59871900	1.80481100	9.19468900	-0.69660700	-0.53689000	9.79064300	-0.05447700	0.23076000	9.56220100	1.55042900	-2.53923700	2.74031300	-0.39099400	9.16688800	6.22222200	-0.02076900	7.58329000
2799	27.98000000	9.25159100	0.02528100	3.62625000	8.89168400	-0.98432900	3.69996900	7.39946900	6.77765400	1.36856000	9.33688500	-0.73930700	-0.37807700	9.81184500	-0.28435000	0.25767800	9.58126200	1.59196700	-2.46343900	3.56533900	-0.43353500	9.59781600	6.15144500	0.18843100	7.66372200
2800	27.99000000	9.09652500	0.09222700	3.66420300	8.85248200	-1.05260400	3.60909900	7.85259300	6.76534300	0.72071300	9.38957800	-0.91162600	-0.28896500	9.84873700	-0.52623900	0.38570300	9.49497200	1.98253000	-2.39864200	4.58395400	-0.29330800	9.84514500	5.55556900	0.22581800	8.08450900
2801	28	9.02314700	0.16201500	3.66281200	8.85584300	-1.17313100	3.56640900	8.20970200	6.42958200	0.34473100	9.33290100	-0.95047600	-0.25365000	9.83409200	-0.52017200	0.40548900	9.51946900	1.93298600	-2.31750400	4.97703800	-0.20856800	9.66130200	5.94855100	0.29712200	7.84726200
2802	28.01000000	8.93308500	0.31917700	3.65648300	8.81409700	-1.26056300	3.49845500	8.41457900	5.74271700	0.21061700	9.29803000	-1.14995100	-0.34435500	9.81403200	-0.41641500	0.25504800	9.44254900	2.00175400	-2.27677800	5.10733900	-0.43332700	9.17345700	5.80954400	0.19012300	7.88978200
2803	28.02000000	8.90502900	0.36754500	3.65598700	8.82682700	-1.32846700	3.47531600	8.47324000	4.81747500	0.31215800	8.96777600	-1.30464200	-0.46738600	9.80068500	-0.52046900	0.28239100	9.40242600	1.99468000	-2.19642900	5.45056200	-0.62036400	8.77374400	6.06046700	0.14116600	7.75084400
2804	28.03000000	8.90569400	0.48718900	3.65048600	8.76661200	-1.38278500	3.42967300	8.36085000	3.83643400	0.91953700	8.59776800	-1.34449900	-0.56497500	9.78068300	-0.71551700	0.32523100	9.42433800	1.90123400	-2.21489500	6.08229400	-0.92679600	8.57729400	6.06309300	0.15196700	7.69381600
2805	28.04000000	8.92839900	0.52906000	3.61778600	8.75491700	-1.44319600	3.38104600	8.27149700	3.09737700	2.19676300	8.20274700	-1.19782000	-0.65760600	9.75983500	-0.97641300	0.26224400	9.40167700	1.74564900	-2.21968900	7.22126300	-1.42421700	8.32541200	6.32201300	0.10563000	7.61328900
2806	28.05000000	8.90782500	0.66037000	3.55845100	8.72681000	-1.57504300	3.23553100	8.31772000	2.69798600	2.60696700	7.86259000	-0.99560200	-0.82253200	9.70083200	-1.14504400	0.34408200	9.34711200	1.65044700	-2.18679100	8.45675300	-0.88773600	9.00872100	6.04452500	0.17303900	7.73556300
2807	28.06000000	8.98084100	0.76384700	3.52279400	8.65372000	-1.54601200	3.11322600	8.18017500	2.19581300	2.35782200	7.44372600	-0.72995400	-1.06685100	9.69589800	-1.11119100	0.43285400	9.30325700	1.48662800	-2.08170300	10.66497800	-0.66493900	9.56016100	6.02613700	0.10546800	7.75895000
2808	28.07000000	9.08115000	0.93724300	3.48558300	8.61123400	-1.64138400	3.08935800	8.16513400	1.75916400	2.48261000	7.49796200	-0.61159500	-1.39085200	9.70835200	-1.14277600	0.49521300	9.38681700	1.38600600	-2.01902400	11.50383200	-1.04519400	9.17235200	5.90094100	0.25356500	7.88472300
2809	28.08000000	9.07055900	0.89932700	3.38770700	8.56902500	-1.73392500	3.06471400	8.40095300	1.47962600	2.82522500	7.71060600	-0.74673700	-1.72721800	9.65980000	-0.97778500	0.50689200	9.48961600	1.29499100	-2.06756600	10.76381900	-1.28076600	8.02063800	6.46704200	-0.05724100	7.44183700
